Coordinates
version=1
nRows=17
nColumns=36
inDegrees=yes

Units are S.I. units (second, meters, Newtons, ...)
If the header above contains a line with 'inDegrees', this indicates whether rotational values are in degrees (yes) or radians (no).

endheader
time	pelvis_tilt	pelvis_list	pelvis_rotation	pelvis_tx	pelvis_ty	pelvis_tz	hip_flexion_r	hip_adduction_r	hip_rotation_r	knee_angle_r	knee_angle_r_beta	ankle_angle_r	subtalar_angle_r	mtp_angle_r	hip_flexion_l	hip_adduction_l	hip_rotation_l	knee_angle_l	knee_angle_l_beta	ankle_angle_l	subtalar_angle_l	mtp_angle_l	lumbar_extension	lumbar_bending	lumbar_rotation	arm_flex_r	arm_add_r	arm_rot_r	elbow_flex_r	pro_sup_r	arm_flex_l	arm_add_l	arm_rot_l	elbow_flex_l	pro_sup_l
      2.45000000	     -3.36781420	      0.93900044	     -1.23846015	      0.32847828	      1.14716519	     -0.07520502	     -0.10942526	     -8.96841692	      0.17467066	      0.94950286	      0.01657195	      4.64665572	     -1.78571606	     -7.49999987	     -0.36502879	     -3.45760053	     -0.30021337	      1.39958327	      0.02442734	      0.28072414	     -9.62609986	     -7.49999987	      9.80920905	     -2.17040701	     27.61952776	   -130.65910987	    -73.91060116	   -194.62300680	     37.91467756	     54.79059921	    122.55488391	    -15.08087335	     -4.75926063	     43.41199180	     93.99974530
      2.46666670	     -3.37151076	      0.91792512	     -1.15008045	      0.32852186	      1.14727445	     -0.07520024	     -0.14060929	     -8.93372613	      0.19540632	      0.95158076	      0.01660822	      4.68271634	     -1.76442593	     -7.49999987	     -0.36177366	     -3.46075477	     -0.21070968	      1.42225916	      0.02482311	      0.35979823	     -9.58809036	     -7.49999987	      9.94928321	     -2.26141051	     27.40431462	   -132.51225411	    -74.40609599	   -197.30005026	     38.05676715	     55.44723794	    123.13249902	    -14.75033009	     -4.66513411	     43.46461306	     93.95107861
      2.48333330	     -3.43635073	      0.90616270	     -1.06076850	      0.32851056	      1.14714363	     -0.07506825	     -0.09193391	     -8.90059737	      0.19552026	      0.96040533	      0.01676224	      4.75928670	     -1.74641003	     -7.49999987	     -0.27003458	     -3.47541597	      0.01303196	      1.42875234	      0.02493643	      0.30225208	     -9.80329195	     -7.49999987	      9.85046115	     -2.53380686	     28.07005167	   -128.58181588	    -73.33846903	   -193.43103231	     39.06505190	     56.39094927	    124.30275350	    -13.41602999	     -3.79824999	     42.41531308	     84.62861967
      2.50000000	     -3.49655849	      0.91867644	     -0.96930101	      0.32867881	      1.14720881	     -0.07528662	     -0.07849346	     -8.89534955	      0.33483597	      0.97090880	      0.01694556	      4.72129193	     -2.04270866	     -7.49999987	     -0.18058767	     -3.47376837	      0.18267110	      1.44080721	      0.02514683	      0.23725003	     -9.90221022	     -7.49999987	      9.70420585	     -2.75812853	     28.38239939	   -127.56321351	    -72.31186324	   -191.73374722	     40.28346610	     56.09610730	    125.58247601	    -12.33973964	     -3.49607348	     41.58819511	     77.93391543
      2.51666670	     -3.29471613	      0.92356270	     -0.93894765	      0.32851126	      1.15012019	     -0.07541190	     -0.31249057	     -8.91965627	      0.19642762	      0.97306331	      0.01698316	      4.77074470	     -1.78889263	     -7.49999987	     -0.39955670	     -3.46401654	      0.24808380	      1.40367038	      0.02449867	      0.22797859	     -9.88273636	     -7.49999987	     10.29059073	     -2.34470020	     23.93344815	   -163.70827772	    -77.53770561	   -234.40478505	     37.01209990	     59.35399190	    126.20665100	    -15.34097351	     -4.31863635	     43.58875215	     94.00653034
      2.53333330	     -3.28261584	      0.93599712	     -0.89402869	      0.32849472	      1.15019073	     -0.07533867	     -0.33973489	     -8.93907573	      0.13275061	      0.97742042	      0.01705920	      4.79212388	     -1.73671322	     -7.49999987	     -0.39196494	     -3.46051878	      0.37189512	      1.39154114	      0.02428697	      0.15354127	     -9.95201313	     -7.49999987	     10.03565631	     -2.39461757	     24.21063126	   -162.45975858	    -76.62632811	   -232.79242472	     37.64021037	     57.35037005	    126.74891118	    -14.74202581	     -5.23735272	     44.02257297	     94.60644702
      2.55000000	     -3.12659911	      0.96377599	     -0.88470824	      0.32831729	      1.15009230	     -0.07534716	     -0.51653688	     -8.97277135	      0.17158479	      0.96596164	      0.01685921	      4.76060434	     -1.82631312	     -7.49999987	     -0.56471837	     -3.43787538	      0.35197320	      1.34322381	      0.02344368	      0.21601891	     -9.70858126	     -7.49999987	      9.25682307	     -2.32798173	     25.44108993	   -155.36369139	    -74.98000770	   -225.92252360	     38.84802908	     57.27646020	    126.91296254	    -13.96478236	     -5.83501965	     44.90411956	     87.00469665
      2.56666670	     -3.24033683	      0.96390852	     -0.81464548	      0.32850617	      1.14694191	     -0.07515143	     -0.41881237	     -8.99201761	      0.02476433	      0.95717355	      0.01670583	      4.79647385	     -1.78280958	     -7.49999987	     -0.41095866	     -3.43634059	      0.55830423	      1.36380021	      0.02380280	      0.14162337	    -10.05603654	     -7.49999987	     10.37093662	     -1.61631946	     21.05970496	   -195.62455857	    -73.87653534	   -272.42456469	     33.84604250	     62.93753806	    127.08935807	    -17.27159524	     -5.92494185	     46.37941379	     95.19366503
      2.58333330	     -3.26333346	      0.96405973	     -0.81822669	      0.33276741	      1.14681586	     -0.07102391	     -0.46364530	     -8.92680155	      0.03595336	      0.94263677	      0.01645212	      4.83713522	     -1.78344414	     -7.49999987	     -0.44316103	     -3.50077436	      0.61399723	      1.37115872	      0.02393123	      0.11588494	    -10.01516950	     -7.49999987	     10.46908630	     -1.66877386	     21.10631064	   -195.64134795	    -73.50995538	   -272.42554708	     33.99643762	     62.94072423	    127.33843446	    -17.05062105	     -5.94565002	     46.49480769	     95.18389119
      2.60000000	     -3.30402963	      0.89959808	     -0.85669514	      0.33275983	      1.14705454	     -0.07093376	     -0.46826801	     -8.79397195	      0.13032849	      0.95383802	      0.01664761	      4.88583177	     -1.84340399	     -7.49999987	     -0.46310618	     -3.64107557	      0.50501773	      1.35971733	      0.02373154	      0.10614812	     -9.84288349	     -7.49999987	     10.34808983	     -1.77429979	     21.49888413	   -192.53710687	    -73.73812131	   -268.72828866	     34.77075694	     61.85301585	    127.53059686	    -15.47475585	     -8.96481475	     47.45334226	     90.52185195
      2.61666670	     -3.29362323	      0.92205157	     -0.91672754	      0.33266838	      1.14984957	     -0.07121155	     -0.52688736	     -8.77535826	      0.11802907	      0.92173421	      0.01608730	      4.86756728	     -1.91383748	     -7.49999987	     -0.54647886	     -3.66864889	      0.46341539	      1.34252678	      0.02343151	      0.07430713	     -9.79826262	     -7.49999987	     10.12784203	     -1.98266847	     22.14743585	   -187.17450472	    -74.53222905	   -263.52518893	     37.11912990	     60.59143483	    127.88125952	    -14.37038514	     -8.81569592	     47.52881024	     83.58990631
      2.63333330	     -3.39132515	      0.94095122	     -0.90571137	      0.33276307	      1.14975819	     -0.07119193	     -0.48455031	     -8.75154759	     -0.08662709	      0.89139536	      0.01555778	      4.96336040	     -1.58334757	     -7.49999987	     -0.49923628	     -3.69180779	      0.61340010	      1.32782720	      0.02317496	     -0.12148856	     -9.94862901	     -7.49999987	     10.16031990	     -2.15057035	     22.34889923	   -184.41192264	    -74.96023268	   -260.00202545	     38.41637407	     60.05662903	    128.38268851	    -13.64288522	     -8.76251241	     47.34146258	     81.86792504
      2.65000000	     -3.36711716	      0.96713275	     -0.93147057	      0.33268823	      1.14952055	     -0.07123023	     -0.54273360	     -8.74705206	     -0.13982330	      0.84433578	      0.01473644	      4.93118701	     -1.66776964	     -7.49999987	     -0.56778566	     -3.69886978	      0.48002670	      1.31798394	      0.02300316	     -0.13381973	     -9.80149288	     -7.49999987	      9.87754125	     -2.17058013	     22.29467893	   -182.81542846	    -75.11648406	   -258.11548586	     40.33843231	     59.68459179	    128.73714398	    -13.13208322	     -9.59624416	     48.11682136	     80.36371105
      2.66666670	     -3.46314602	      1.00466787	     -0.95944707	      0.33278191	      1.14932044	     -0.07106948	     -0.44987750	     -8.76724567	     -0.18445206	      0.80827088	      0.01410699	      4.93338048	     -1.66939666	     -7.49999987	     -0.50394296	     -3.69128167	      0.44693484	      1.29146396	      0.02254030	     -0.20009830	     -9.73669864	     -7.49999987	     10.93972316	     -1.52992321	     17.10053507	   -217.63808457	    -69.93500776	   -299.79676263	     37.92044761	     66.23449559	    129.42510494	    -17.01992684	     -9.42543761	     49.49394892	     94.75442417
      2.68333330	     -3.44401214	      0.99060479	     -0.98670105	      0.33271334	      1.14903449	     -0.07126892	     -0.46411563	     -8.72457269	     -0.13042525	      0.77819758	      0.01358211	      4.94533837	     -1.57682081	     -7.49999987	     -0.56725925	     -3.70260985	      0.35952802	      1.27808728	      0.02230683	     -0.15834040	     -9.59877055	     -7.49999987	     10.68000092	     -1.66533247	     17.56287635	   -212.78966710	    -70.79524308	   -292.31419217	     39.54716163	     63.20993700	    130.31796221	    -16.90874891	     -7.51942826	     48.29643394	     93.48885614
      2.70000000	     -3.51531825	      0.98696098	     -0.90672075	      0.33274339	      1.14907797	     -0.07121132	     -0.42514054	     -8.68913686	     -0.09746852	      0.74673572	      0.01303300	      4.97138219	     -1.63157077	     -7.49999987	     -0.49134246	     -3.72113136	      0.44795820	      1.25594557	      0.02192039	     -0.20871994	     -9.61678460	     -7.49999987	     10.94751443	     -1.68229720	     16.50122585	   -217.58972868	    -69.50922662	   -298.24159508	     40.33577705	     62.63143537	    131.10720706	    -17.78547467	     -6.00521322	     47.52540964	     96.27101502
      2.71666670	     -3.56580464	      1.00035095	     -0.89410384	      0.33274665	      1.14864906	     -0.07129295	     -0.38317118	     -8.68512752	     -0.08082031	      0.73288848	      0.01279132	      5.00662864	     -1.55888851	     -7.49999987	     -0.43787431	     -3.71322767	      0.37483950	      1.23880938	      0.02162130	     -0.16318503	     -9.47224394	     -7.49999987	     11.04661501	     -1.68647143	     15.80614388	   -219.88734922	    -68.50444177	   -300.54066436	     40.85056516	     62.27564440	    131.82956408	    -18.72573539	     -3.20889698	     47.06463721	     95.40265299
